<svg id="Layer_1" data-name="Layer 1" xmlns="http://www.w3.org/2000/svg" viewBox="0 0 2000 2000"><circle cx="1000" cy="1000" r="793.33" style="fill:#3943ce"/><circle cx="1544.98" cy="1312.74" r="42.45" style="fill:#f06747"/><circle cx="1610.81" cy="1224.8" r="25.61" style="fill:#f06747"/><path d="M1446.28,688.59h-27.89V660.71a30,30,0,1,0-60,0v27.88h-27.88a30,30,0,1,0,0,60h27.88v27.89a30,30,0,0,0,60,0V748.56h27.89a30,30,0,0,0,0-60Z" transform="translate(0 0)" style="fill:#22998e"/><path d="M549.45,987.1a30,30,0,0,1-30-30c0-30.72-45.28-92-63.75-98.08a30,30,0,0,1,0-59.91c18.47-6.06,63.75-67.36,63.75-98.08a30,30,0,1,1,60,0c0,30.72,45.29,92,63.76,98.08a30,30,0,0,1,0,59.91c-18.47,6.06-63.76,67.35-63.76,98.08A30,30,0,0,1,549.45,987.1Zm-36.83-158a251.25,251.25,0,0,1,26.48,31.28c2.39,3.31,6.1,8.65,10.35,15.43,4.24-6.78,7.95-12.12,10.34-15.43a252.28,252.28,0,0,1,26.49-31.28,252.26,252.26,0,0,1-26.49-31.27c-2.39-3.32-6.1-8.65-10.34-15.43-4.25,6.78-8,12.11-10.35,15.43A251.23,251.23,0,0,1,512.62,829.07Zm129.25,30h0Zm-184.84,0h0Zm0-60h0Zm184.8,0h0Z" transform="translate(0 0)" style="fill:#22998e"/><path d="M1000,2000C448.6,2000,0,1551.4,0,1000S448.6,0,1000,0,2000,448.6,2000,1000,1551.4,2000,1000,2000Zm0-1940C481.66,60,60,481.66,60,1000s421.69,940,940,940,940-421.69,940-940S1518.33,60,1000,60Z" transform="translate(0 0)" style="fill:#3943ce"/><circle cx="966.57" cy="516.12" r="121.76" style="fill:#efc1bd"/><path d="M1088.34,516.13a120.88,120.88,0,0,1-8.46,44.59,662.28,662.28,0,0,1-82.1,37.51,715.38,715.38,0,0,1-86.68,26.28,121.85,121.85,0,0,1-52-51.14c29.49-3.76,69.51-13,117.32-31.18s83.9-37.89,108.49-54.68A120.89,120.89,0,0,1,1088.34,516.13Z" transform="translate(0 0)" style="fill:#efc1bd"/><path d="M1131.08,528.18a438.45,438.45,0,0,1-51.2,32.54,662.28,662.28,0,0,1-82.1,37.51,715.38,715.38,0,0,1-86.68,26.28c-26.27,6-54.9,10.74-80.74,10.74-36.63,0-67.65-9.38-78.34-37.56-9.32-24.54-2.29-64.66,84.29-116.45l17.22-10.31a119.84,119.84,0,0,0-8.72,45.2,121.64,121.64,0,0,0,3.43,28.67c-18.53,12.6-29.11,22.9-34.61,29.61,9.48,1.52,25,1.58,45.52-1,29.49-3.76,69.51-13,117.32-31.18s83.9-37.89,108.49-54.68c17.06-11.72,28.62-22,34.67-29.44-8.62-1.36-23.34-2-45.58.82a121.59,121.59,0,0,0-52.93-51.63l18.42-3.54c79.16-15.21,128.12-4.53,141.58,30.85C1192.08,463.41,1175.23,494.87,1131.08,528.18Z" transform="translate(0 0)" style="fill:#f06747"/><path d="M1252.21,1280.08l120.92-61.38a27.38,27.38,0,0,0,14.39-18.92l35.06-173.91a27.22,27.22,0,0,0-26.71-32.6H1045.65L922.06,879.66a27.24,27.24,0,0,0-45.68,20.28L879.1,1228,694.89,1478.31c-75-40.84-139.4-175.11-116.93-309.77a27.27,27.27,0,0,0-43.4-26.16c-84.06,63.78-129.15,152.37-130.46,256.17-.65,53.7,11.29,109,33.37,160.77a792.62,792.62,0,0,0,152.64,120C508.72,1610,457.42,1501.2,458.62,1399.2c.6-47.1,12.65-110,60.4-167.36,2.67,138.8,75.62,272.09,176.25,306a27.31,27.31,0,0,0,30.64-9.71L928.39,1253a27.14,27.14,0,0,0,5.29-16.35l-2.29-274.38,85.2,78.28a27.46,27.46,0,0,0,18.43,7.2h327.54l-25.9,128.28-133.07,67.54a27.29,27.29,0,0,0-12.16,36.31l200.89,409.75q23.88-13.58,46.61-28.79Z" transform="translate(0 0)" style="fill:#efc1bd"/></svg>